PathFileType	4	(X/Y/Z)	c:/Users/goper/Files/vsCode/490R/osim_files/A03/A03_SSWS_06.trc
DataRate	CameraRate	NumFrames	NumMarkers	Units                	OrigDataRate	OrigDataStartFrame	OrigNumFrames
250.00	250.00	7	36	mm	250.0	1569	2510
                Frame#	Time	LPSIS			LASIS			LTH1			LTH2			LTH3			LTH4			LLFE			LMFE			LSH1			LSH2			LSH3			LSH4			LLMAL			LMMAL			LCAL			LMTP5			LTOE			LMTP1			RPSIS			RASIS			RTH1			RTH2			RTH3			RTH4			RLFE			RMFE			RSH1			RSH2			RSH3			RSH4			RLMAL			RMMAL			RCAL			RMTP1			RTOE			RMTP5		
		X1	Y1	Z1	X2	Y2	Z2	X3	Y3	Z3	X4	Y4	Z4	X5	Y5	Z5	X6	Y6	Z6	X7	Y7	Z7	X8	Y8	Z8	X9	Y9	Z9	X10	Y10	Z10	X11	Y11	Z11	X12	Y12	Z12	X13	Y13	Z13	X14	Y14	Z14	X15	Y15	Z15	X16	Y16	Z16	X17	Y17	Z17	X18	Y18	Z18	X19	Y19	Z19	X20	Y20	Z20	X21	Y21	Z21	X22	Y22	Z22	X23	Y23	Z23	X24	Y24	Z24	X25	Y25	Z25	X26	Y26	Z26	X27	Y27	Z27	X28	Y28	Z28	X29	Y29	Z29	X30	Y30	Z30	X31	Y31	Z31	X32	Y32	Z32	X33	Y33	Z33	X34	Y34	Z34	X35	Y35	Z35	X36	Y36	Z36

1569	6.27200	-1354.94812	1073.66187	285.25583	-1591.90308	998.62402	409.40753	-1686.12463	669.52704	454.91904	-1711.98267	634.93530	450.18787	-1736.22339	699.30963	430.54300	-1752.42114	658.27826	428.27441	-1711.42505	580.23553	438.98206	-1739.28638	580.30518	285.48099	-1684.86560	488.65295	435.22488	-1693.89355	441.35306	433.07300	-1746.93958	492.14691	431.53177	-1745.13782	444.81155	425.76550	-1742.12048	120.14905	395.53500	-1754.71008	127.00407	297.08810	-1677.12720	94.51564	340.65961	-1899.03406	82.64426	409.62558	-1923.94800	117.81201	341.39963	-1897.99011	92.95489	294.87680	-1356.99524	1081.61206	201.09132	-1596.40649	976.52344	113.32410	-1494.66943	610.68372	94.10500	-1497.39636	566.44617	104.70471	-1554.95398	608.39813	104.44199	-1550.27148	565.70624	113.18917	-1515.20813	531.48523	123.70483	-1547.38477	542.38477	243.59981	-1453.20947	472.05817	123.68051	-1444.21057	431.42435	114.06415	-1512.08215	453.40247	122.41619	-1493.65320	410.53384	114.59000	-1390.63879	125.30277	175.48439	-1417.71765	112.66201	259.26740	-1330.76477	87.59008	234.75066	-1543.50671	47.62434	270.26779	-1571.61584	71.32910	220.44884	-1537.30481	44.10313	150.94936
1570	6.27600	-1359.11401	1073.23230	285.77365	-1596.19727	997.61816	409.50464	-1690.01978	668.35236	454.25488	-1716.00000	633.91193	449.17487	-1739.86096	698.55609	429.82568	-1756.24780	657.60669	427.19681	-1715.35144	579.45575	437.83881	-1743.27087	579.92926	284.40582	-1690.82251	487.25299	434.20453	-1700.86450	440.18930	432.14871	-1752.83130	492.20276	430.49585	-1752.12720	444.81943	424.84073	-1756.45667	120.11163	395.06464	-1768.88904	127.11235	296.58752	-1692.06042	92.93765	340.11502	-1914.10681	86.22120	409.32785	-1938.70264	121.86439	341.17511	-1912.93018	96.27605	294.67093	-1360.96021	1081.27051	201.66954	-1599.98560	975.95654	113.20131	-1496.36865	610.44836	94.01147	-1499.09436	566.44348	104.82532	-1557.22546	607.80109	104.02999	-1552.43958	565.18524	112.78451	-1517.36353	531.04254	123.43037	-1550.11658	541.69586	243.17586	-1455.03052	471.92038	123.54638	-1445.77600	431.33057	113.94875	-1513.74243	452.95819	122.09164	-1495.95300	410.28079	114.50815	-1390.57898	125.34840	175.35532	-1417.89783	112.65988	259.13126	-1330.80725	87.66461	234.68848	-1543.52271	47.66275	270.22504	-1571.65149	71.23881	220.47238	-1537.27942	44.02528	150.91643
1571	6.28000	-1363.37183	1072.70203	286.27036	-1600.55225	996.56519	409.64377	-1693.80811	667.12909	453.59348	-1720.02820	632.84009	448.21518	-1743.45642	697.72144	429.16632	-1759.99695	656.84210	426.14288	-1719.25720	578.64014	436.77988	-1747.24756	579.49225	283.30322	-1696.79395	485.87329	433.26141	-1707.86829	438.98947	431.24649	-1758.66418	492.15161	429.57199	-1759.05505	444.79764	423.96326	-1770.60840	120.22787	394.58981	-1783.27856	127.29995	296.32632	-1706.81848	91.57469	339.67786	-1928.91699	89.93114	408.99237	-1952.49438	125.91452	340.68942	-1927.54785	99.74894	294.38217	-1365.02844	1080.91748	202.27647	-1603.60681	975.38922	113.06075	-1498.70215	610.09137	93.79723	-1501.31531	566.07373	104.58643	-1559.54810	607.24432	103.59454	-1554.65015	564.59186	112.37749	-1519.47852	530.59418	123.09774	-1552.78882	541.05396	242.79527	-1456.85938	471.76694	123.40476	-1447.37280	431.20813	113.84369	-1515.36694	452.48181	121.76189	-1496.96179	409.94550	114.06032	-1390.70862	125.40370	175.22977	-1417.83752	112.86497	259.06201	-1330.87097	87.72288	234.63866	-1543.46948	47.62592	270.26196	-1571.72290	71.23067	220.28468	-1537.24255	43.94682	150.82584
1572	6.28400	-1368.25708	1072.08459	286.66757	-1604.80371	995.42981	409.70728	-1697.70544	665.84607	452.96805	-1723.93896	631.75757	447.27176	-1746.73230	696.61652	428.37579	-1763.73657	655.99957	425.14557	-1723.19238	577.72284	435.73352	-1751.04333	578.96619	282.29706	-1702.65247	484.51093	432.29858	-1714.75842	437.85245	430.38269	-1764.43909	492.08640	428.61597	-1765.86450	444.78101	423.09195	-1784.48828	120.54939	394.08188	-1796.98438	127.70831	295.83182	-1721.41479	90.37893	339.17078	-1943.43054	93.75562	408.60773	-1966.22021	130.08932	340.21555	-1941.94531	103.33038	294.00565	-1369.11292	1080.52625	202.81784	-1607.19775	974.80896	112.93056	-1501.08472	609.67102	93.56702	-1503.55481	565.65857	104.30816	-1561.92078	606.54224	103.16790	-1556.86414	563.98114	111.93015	-1521.59473	530.11456	122.72335	-1555.52478	540.35406	242.35162	-1458.73279	471.56403	123.21857	-1448.94446	431.08160	113.66386	-1517.13135	451.99734	121.42467	-1498.83191	409.51062	113.86668	-1390.82007	125.45019	175.12473	-1418.07361	112.92709	258.87671	-1330.91870	87.78737	234.58224	-1543.47351	47.67983	270.18390	-1571.69946	71.24032	220.19730	-1537.20947	43.88444	150.77557
1573	6.28800	-1371.87720	1071.60535	287.30191	-1609.13916	994.29858	409.80463	-1701.45203	664.55353	452.34122	-1727.86023	630.62054	446.38275	-1750.34436	695.66461	427.82355	-1767.46985	655.11432	424.21207	-1727.07007	576.74792	434.78165	-1754.74841	578.40332	281.28000	-1708.54578	483.03122	431.43564	-1721.56836	436.72882	429.57629	-1770.07507	492.01410	427.71365	-1772.54895	444.70679	422.24478	-1798.15735	120.90748	393.55341	-1810.49609	128.24344	295.30908	-1735.66174	89.36534	338.74698	-1957.59692	97.66528	408.11584	-1979.63562	134.33200	339.72919	-1955.91626	106.99225	293.53900	-1373.12744	1080.08545	203.40909	-1610.88489	974.19464	112.80102	-1503.47705	609.25964	93.32863	-1505.77429	565.24133	104.04828	-1564.78101	606.14111	101.88662	-1559.11218	563.36639	111.49667	-1523.78040	529.61914	122.39772	-1558.20215	539.57117	241.90816	-1460.61426	471.37622	123.02907	-1450.61951	430.93765	113.52818	-1518.87671	451.44568	121.03564	-1499.44250	408.97986	113.41754	-1390.89307	125.50622	175.01140	-1418.22632	112.97699	258.69781	-1330.93127	87.86680	234.50621	-1543.42261	47.70056	270.13168	-1571.62207	71.26996	220.13359	-1537.18457	43.81047	150.72490
1574	6.29200	-1376.08643	1071.02100	287.78842	-1613.55164	993.15704	409.90634	-1705.26331	663.24451	451.79984	-1731.70093	629.41132	445.58331	-1753.95435	694.61945	427.23895	-1771.14050	654.14539	423.30997	-1730.94556	575.66962	433.83994	-1758.39893	577.75397	280.29272	-1714.31677	481.60794	430.60245	-1728.31567	435.57416	428.77917	-1775.71387	491.83499	426.83685	-1779.15234	444.60358	421.44269	-1811.54993	121.45711	393.09821	-1823.67676	128.92973	294.79901	-1749.74341	88.44365	338.31677	-1971.43982	101.64124	407.58197	-1993.34595	138.62167	339.25662	-1969.49487	110.73575	292.98181	-1377.22900	1079.54773	203.96893	-1614.56372	973.53192	112.73878	-1507.05066	608.55664	93.27274	-1507.98071	564.82538	103.73880	-1567.27148	605.49652	101.46587	-1561.37524	562.72565	111.02062	-1525.93860	529.09760	122.06145	-1560.06091	537.77954	242.01859	-1462.48511	471.18311	122.79179	-1452.18469	430.76868	113.33671	-1520.14050	450.38931	120.54502	-1501.81555	408.62024	113.27132	-1390.97400	125.54067	174.84883	-1418.44885	112.96243	258.51480	-1330.96973	87.91342	234.44255	-1543.34827	47.71527	270.06592	-1571.55029	71.26296	220.04979	-1537.16406	43.74929	150.66940
1575	6.29600	-1380.40833	1070.36255	288.30005	-1618.02002	991.94769	410.01489	-1709.00684	661.90082	451.23962	-1735.57410	628.18066	444.78503	-1757.53149	693.54803	426.70383	-1774.81079	653.09436	422.44904	-1734.81458	574.57141	433.01263	-1762.11304	577.09326	279.40176	-1720.16675	480.16513	429.86649	-1735.02063	434.42587	428.12860	-1781.23438	491.60193	425.99362	-1785.70020	444.48322	420.64056	-1824.64844	122.06297	392.65549	-1836.55432	129.68497	294.34573	-1763.57471	87.75154	337.96719	-1984.79065	105.28146	406.54614	-2005.47083	142.82855	338.41638	-1982.74524	114.53027	292.31488	-1381.27563	1079.04456	204.51802	-1618.28271	972.84583	112.58886	-1508.91687	608.16003	93.16756	-1510.24133	564.38373	103.46154	-1569.58301	604.80371	100.95462	-1563.69165	562.05127	110.58483	-1528.12476	528.55646	121.67580	-1563.56409	537.83801	240.97537	-1464.35913	470.89032	122.64115	-1453.83826	430.56015	113.16358	-1522.40979	450.36319	120.38176	-1503.29663	408.17871	112.92902	-1391.02844	125.56859	174.73097	-1418.36414	113.06910	258.39130	-1330.99634	87.96299	234.39934	-1543.32983	47.73790	269.99765	-1571.49646	71.25092	219.96318	-1537.13867	43.68616	150.62399
